<?xml version="1.0" encoding="utf-8"?>
<!-- Generator: Adobe Illustrator 25.0.1, SVG Export Plug-In . SVG Version: 6.00 Build 0)  -->
<svg version="1.1" id="Layer_1" xmlns="http://www.w3.org/2000/svg" xmlns:xlink="http://www.w3.org/1999/xlink" x="0px" y="0px"
	 viewBox="0 0 1920 763" style="enable-background:new 0 0 1920 763;" xml:space="preserve">
<style type="text/css">
	.st0{fill:#F4F4F4;}
</style>
<g>
	<path class="st0" d="M297.9,522.8l-196.5,61.4l23.3,74.6l147.5-46l7.4,23.8L108.2,690L70.1,567.8L290.4,499L297.9,522.8z
		 M343.9,670.2L123.6,739l-7.4-23.8l196.5-61.4l-23.3-74.6l-147.5,46l-7.4-23.8L305.8,548L343.9,670.2z"/>
	<path class="st0" d="M558.6,495.2l-171.3,53.5l-7.4-23.8l147.5-46l-7.9-25.3l-172.7,53.9l23.3,74.6l196.5-61.4l7.4,23.8
		l-220.3,68.8l-38.2-122.2l220.3-68.8L558.6,495.2z"/>
	<path class="st0" d="M803.9,418.6l-171.3,53.5l-7.4-23.8l147.5-46l-7.9-25.3l-172.7,53.9l23.3,74.6l196.5-61.4l7.4,23.8L599,536.7
		l-38.2-122.2l220.3-68.8L803.9,418.6z"/>
	<path class="st0" d="M1064.7,391.3l-220.3,68.8l-38.2-122.2l147.5-46l-15.3-49.1l23.8-7.4l22.8,72.9l-147.5,46l23.3,74.6
		l172.7-53.9l-46-147.5l23.8-7.4L1064.7,391.3z M1000.3,357.6l-122.2,38.2l-7.4-23.8l122.2-38.2L1000.3,357.6z"/>
	<path class="st0" d="M1604.5,222.8l-269.4,84.1L1297,184.7l23.8-7.4l30.7,98.4l221.8-69.3l-30.7-98.4l23.8-7.4L1604.5,222.8z
		 M1441.9,219.4l-73.1,22.8l-22.1-70.7l23.8-7.4l14.6,46.9l25.5-8l-15.3-49.1l23.8-7.4L1441.9,219.4z M1540.1,188.8l-72.9,22.8
		l-22.1-70.7l23.8-7.4l14.6,46.9l25.3-7.9l-15.3-49.1l23.8-7.4L1540.1,188.8z"/>
	<path class="st0" d="M1849.9,146.2l-147.5,46l15.3,49.1l-23.8,7.4l-22.8-72.9l147.5-46l-23.3-74.6l-172.7,53.9l46,147.5l-23.8,7.4
		l-53.5-171.3L1811.8,24L1849.9,146.2z M1785.4,112.2l-122.2,38.2l-7.4-23.8L1778,88.4L1785.4,112.2z"/>
</g>
<rect x="1078.6" y="324.6" transform="matrix(0.9546 -0.298 0.298 0.9546 -46.0787 371.8834)" class="st0" width="235.5" height="24.9"/>
</svg>
